<svg width="825" height="373" viewBox="0 0 825 373" fill="none" xmlns="http://www.w3.org/2000/svg">
<g clip-path="url(#clip0_121_2)">
<path d="M12 125H66.6C80.6 125 90.6667 127.6 96.8 132.8C103.067 137.867 106.2 146.133 106.2 157.6C106.2 163.733 105 169.333 102.6 174.4C100.333 179.467 97.0667 183.333 92.8 186V187.2C98.5333 188.667 103.2 192 106.8 197.2C110.533 202.267 112.4 208.133 112.4 214.8C112.4 226.133 109.067 234.867 102.4 241C95.7333 247 86.0667 250 73.4 250H12V125ZM47.2 239L32.6 224.4H65.6C69.6 224.4 72.4 223.467 74 221.6C75.6 219.6 76.4 216.2 76.4 211.4C76.4 206.867 75.6 203.667 74 201.8C72.5333 199.933 69.8 199 65.8 199H44V174.4H60.8C64.8 174.4 67.4667 173.6 68.8 172C70.2667 170.267 71 167.067 71 162.4C71 157.733 70.3333 154.6 69 153C67.6667 151.4 65 150.6 61 150.6H32.6L47.2 136V239ZM125.569 187.6C125.569 174.933 126.502 164.4 128.369 156C130.235 147.467 133.369 140.733 137.769 135.8C142.169 130.867 148.102 127.333 155.569 125.2C163.035 123.067 172.302 122 183.369 122C194.435 122 203.702 123.067 211.169 125.2C218.769 127.333 224.702 130.867 228.969 135.8C233.369 140.733 236.502 147.467 238.369 156C240.235 164.4 241.169 174.933 241.169 187.6C241.169 200.267 240.235 210.8 238.369 219.2C236.502 227.6 233.369 234.267 228.969 239.2C224.702 244.133 218.769 247.667 211.169 249.8C203.702 251.933 194.435 253 183.369 253C172.302 253 163.035 251.933 155.569 249.8C148.102 247.667 142.169 244.133 137.769 239.2C133.369 234.267 130.235 227.6 128.369 219.2C126.502 210.8 125.569 200.267 125.569 187.6ZM163.369 223H187.169C193.302 223 197.502 222.133 199.769 220.4C202.169 218.667 203.369 215.667 203.369 211.4V152H179.369C173.369 152 169.169 152.867 166.769 154.6C164.502 156.333 163.369 159.333 163.369 163.6V223ZM260.828 250V125H296.028V221H335.828V250H260.828ZM393.925 154V250H358.725V154H329.525V125H423.125V154H393.925Z" fill="white"/>
<path d="M584.4 245L617.6 120H672.2L705.4 245H670.2L645.8 153.6H644L619.6 245H584.4ZM606.6 223.2V197.4H683.2V223.2H606.6ZM718.828 120H773.428C787.428 120 797.495 122.6 803.628 127.8C809.895 132.867 813.028 141.133 813.028 152.6C813.028 158.733 811.828 164.333 809.428 169.4C807.161 174.467 803.895 178.333 799.628 181V182.2C805.361 183.667 810.028 187 813.628 192.2C817.361 197.267 819.228 203.133 819.228 209.8C819.228 221.133 815.895 229.867 809.228 236C802.561 242 792.895 245 780.228 245H718.828V120ZM754.028 234L739.428 219.4H772.428C776.428 219.4 779.228 218.467 780.828 216.6C782.428 214.6 783.228 211.2 783.228 206.4C783.228 201.867 782.428 198.667 780.828 196.8C779.361 194.933 776.628 194 772.628 194H750.828V169.4H767.628C771.628 169.4 774.295 168.6 775.628 167C777.095 165.267 777.828 162.067 777.828 157.4C777.828 152.733 777.161 149.6 775.828 148C774.495 146.4 771.828 145.6 767.828 145.6H739.428L754.028 131V234Z" fill="white"/>
<path d="M589 89C589 90.0866 588.825 90.3209 588.215 91.1881C588.045 91.4312 587.876 91.6744 587.701 91.9249C587.517 92.1851 587.332 92.4453 587.142 92.7134C586.953 92.9832 586.764 93.2531 586.57 93.5311C586.182 94.0861 585.793 94.6405 585.403 95.1944C584.611 96.3222 583.828 97.4567 583.046 98.5913C582.758 99.0076 582.47 99.4238 582.182 99.8399C582.041 100.044 581.899 100.248 581.754 100.458C581.47 100.868 581.185 101.279 580.901 101.689C576.075 108.66 571.277 115.649 566.504 122.655C566.359 122.869 566.214 123.082 566.064 123.301C565.478 124.162 564.892 125.022 564.306 125.883C562.474 128.574 560.635 131.261 558.773 133.932C558.104 134.898 557.45 135.874 556.796 136.85C555.402 138.933 553.99 141.004 552.576 143.073C552.31 143.462 552.044 143.851 551.778 144.24C551.102 145.23 550.426 146.219 549.749 147.208C549.375 147.756 549 148.303 548.626 148.851C545.663 153.185 542.695 157.517 539.723 161.846C539.111 162.738 538.499 163.631 537.887 164.523C535.402 168.149 532.908 171.769 530.403 175.382C528.354 178.34 526.314 181.305 524.28 184.273C522.953 186.208 521.623 188.139 520.286 190.067C519.516 191.179 518.748 192.292 517.983 193.408C515.962 196.354 513.921 199.285 511.845 202.195C511.705 202.392 511.565 202.588 511.421 202.791C511.128 203.198 510.831 203.603 510.532 204.006C509.689 205.017 509.689 205.017 509.398 206.241C509.731 206.056 510.065 205.871 510.409 205.68C513.129 204.173 515.855 202.678 518.589 201.197C519.031 200.957 519.031 200.957 519.482 200.713C520.966 199.909 522.451 199.107 523.937 198.306C524.519 197.992 525.1 197.678 525.682 197.364C525.97 197.209 526.257 197.053 526.554 196.893C528.722 195.718 530.869 194.509 533.015 193.293C535.275 192.013 537.548 190.792 539.886 189.658C541.544 188.85 543.149 187.967 544.753 187.059C546.557 186.039 548.375 185.046 550.198 184.06C550.493 183.9 550.788 183.74 551.092 183.576C552.631 182.743 554.172 181.912 555.712 181.081C556.325 180.75 556.938 180.419 557.551 180.088C557.995 179.848 557.995 179.848 558.449 179.603C559.963 178.782 561.463 177.945 562.945 177.07C564.588 176.1 566.286 175.274 568.002 174.441C569.536 173.671 570.992 172.766 572.441 171.849C572.941 171.539 573.457 171.253 573.975 170.973C574.186 171.078 574.397 171.183 574.614 171.291C574.456 171.467 574.298 171.643 574.136 171.825C573.931 172.055 573.726 172.285 573.515 172.522C573.311 172.751 573.107 172.979 572.897 173.215C572.36 173.803 572.36 173.803 572.057 174.468C572.263 174.379 572.469 174.289 572.681 174.197C573.631 173.784 574.582 173.371 575.533 172.959C575.857 172.818 576.181 172.677 576.515 172.532C578.301 171.758 580.094 171.008 581.907 170.295C584.182 169.4 586.434 168.442 588.68 167.478C588.285 168.658 587.982 168.732 586.922 169.345C585.299 170.336 583.792 171.422 582.287 172.582C580.308 174.105 578.312 175.6 576.292 177.07C574.271 178.543 572.271 180.037 570.29 181.564C568.918 182.616 567.529 183.644 566.142 184.675C563.896 186.345 561.658 188.027 559.429 189.719C556.931 191.615 554.422 193.494 551.905 195.365C550.436 196.459 548.973 197.559 547.52 198.675C544.952 200.648 542.348 202.575 539.748 204.506C537.254 206.36 534.769 208.223 532.303 210.114C528.312 213.172 524.295 216.194 520.259 219.192C518.937 220.175 517.622 221.164 516.32 222.171C511.333 226.026 505.968 229.298 500.586 232.572C499.2 233.42 497.826 234.288 496.45 235.154C494.402 236.443 492.346 237.719 490.279 238.978C489.156 239.664 488.037 240.357 486.92 241.052C486.711 241.181 486.502 241.311 486.287 241.445C485.277 242.073 484.268 242.701 483.258 243.33C479.297 245.797 475.328 248.25 471.335 250.665C470.064 251.435 468.796 252.212 467.529 252.989C466.903 253.372 466.277 253.754 465.65 254.135C460.954 256.997 456.288 259.907 451.634 262.836C448.7 264.682 445.748 266.498 442.793 268.311C441.113 269.342 439.435 270.376 437.756 271.409C436.311 272.299 434.864 273.188 433.417 274.074C433.118 274.257 432.82 274.44 432.512 274.629C431.947 274.975 431.381 275.322 430.815 275.668C429.256 276.624 427.728 277.613 426.222 278.651C425.639 279 425.639 279 425 279C425.493 277.564 426.286 276.397 427.158 275.167C427.312 274.947 427.467 274.726 427.626 274.499C428.134 273.774 428.645 273.051 429.156 272.328C429.505 271.831 429.855 271.335 430.204 270.838C430.947 269.782 431.691 268.726 432.435 267.671C435.452 263.392 438.453 259.103 441.413 254.786C442.552 253.128 443.711 251.485 444.881 249.849C446.06 248.198 447.215 246.534 448.337 244.844C449.446 243.174 450.587 241.531 451.754 239.9C453.224 237.844 454.664 235.771 456.09 233.684C457.994 230.897 459.921 228.127 461.86 225.363C463.059 223.653 464.255 221.94 465.441 220.221C466.87 218.149 468.312 216.086 469.756 214.025C471.933 210.919 474.096 207.805 476.248 204.682C477.986 202.16 479.737 199.648 481.505 197.146C483.723 194.005 485.897 190.835 488.068 187.662C489.278 185.897 490.497 184.139 491.716 182.381C492.588 181.122 493.458 179.862 494.329 178.603C495.081 177.516 495.833 176.429 496.586 175.343C496.818 175.009 496.818 175.009 497.055 174.667C497.345 174.248 497.636 173.828 497.928 173.409C498.996 171.866 500.044 170.31 501.086 168.749C500.687 168.927 500.687 168.927 500.28 169.108C499.281 169.553 498.282 169.999 497.283 170.444C496.853 170.636 496.423 170.827 495.993 171.019C495.681 171.158 495.681 171.158 495.363 171.3C495.157 171.391 494.952 171.483 494.74 171.578C494.331 171.76 493.921 171.942 493.512 172.123C492.641 172.51 491.772 172.899 490.906 173.297C490.651 173.413 490.397 173.529 490.135 173.649C489.923 173.748 489.71 173.846 489.491 173.948C488.938 174.151 488.938 174.15 487.979 174.15C487.979 174.36 487.979 174.57 487.979 174.786C487.697 174.89 487.416 174.993 487.126 175.1C486.754 175.239 486.383 175.378 486 175.521C485.45 175.725 485.45 175.725 484.888 175.934C483.853 176.329 483.853 176.329 483.087 176.825C482.083 177.41 481.06 177.805 479.977 178.224C478.281 178.893 476.609 179.617 474.934 180.337C474.318 180.602 473.7 180.865 473.083 181.127C470.654 182.168 468.276 183.279 465.919 184.473C464.66 185.104 463.378 185.67 462.084 186.224C460.465 186.931 458.854 187.653 457.249 188.389C456.725 188.628 456.725 188.628 456.191 188.873C455.371 189.253 454.555 189.638 453.741 190.029C453.523 190.133 453.305 190.237 453.081 190.344C452.655 190.547 452.23 190.752 451.806 190.959C451.298 191.2 450.777 191.415 450.255 191.625C450.044 191.521 449.833 191.416 449.616 191.308C450.591 190.601 451.567 189.896 452.543 189.191C452.949 188.898 453.355 188.605 453.761 188.312C458.407 184.955 463.101 181.668 467.838 178.44C472.061 175.561 476.262 172.655 480.38 169.63C481.725 168.643 483.084 167.674 484.442 166.704C486.928 164.924 489.385 163.108 491.831 161.273C492.863 160.5 493.897 159.73 494.932 158.959C495.358 158.642 495.784 158.324 496.211 158.006C499.088 155.861 499.088 155.861 499.88 155.271C500.42 154.868 500.96 154.465 501.501 154.063C502.852 153.055 504.203 152.049 505.555 151.043C508.626 148.759 511.686 146.46 514.735 144.147C516.784 142.593 518.842 141.051 520.906 139.518C521.733 138.903 522.558 138.287 523.384 137.672C524.672 136.711 525.96 135.751 527.249 134.793C529.366 133.219 531.477 131.637 533.578 130.041C537.244 127.256 540.947 124.527 544.67 121.818C547.934 119.442 551.17 117.033 554.385 114.591C556.01 113.357 557.644 112.138 559.304 110.95C562.8 108.443 566.256 105.884 569.679 103.278C572.016 101.498 574.379 99.762 576.773 98.0588C578.487 96.837 580.157 95.5709 581.822 94.2834C583.457 93.0331 585.141 91.8466 586.818 90.6525C587.055 90.4836 587.292 90.3147 587.536 90.1406C587.749 89.9894 587.962 89.8383 588.182 89.6825C588.668 89.3458 588.668 89.3458 589 89Z" fill="url(#paint0_linear_121_2)"/>
</g>
<defs>
<linearGradient id="paint0_linear_121_2" x1="507" y1="89" x2="507" y2="279" gradientUnits="userSpaceOnUse">
<stop stop-color="#A855F7"/>
<stop offset="1" stop-color="#3B82F6"/>
</linearGradient>
<clipPath id="clip0_121_2">
<rect width="825" height="373" fill="white"/>
</clipPath>
</defs>
</svg>
